<?xml version="1.0" encoding="utf-8"?>
<!-- Generator: Adobe Illustrator 19.2.0, SVG Export Plug-In . SVG Version: 6.00 Build 0)  -->
<svg version="1.1" id="Layer_1" xmlns="http://www.w3.org/2000/svg" xmlns:xlink="http://www.w3.org/1999/xlink" x="0px" y="0px"
	 viewBox="0 0 420 84" enable-background="new 0 0 420 84" xml:space="preserve">
<g id="o" display="none">
	<path display="inline" fill="#265488" d="M65.028,134.747L-3.153,94.99c-5.31-3.096-8.562-8.788-8.536-14.933l0.34-78.925
		c0.027-6.146,3.33-11.809,8.665-14.859l68.521-39.168c5.335-3.049,11.892-3.021,17.199,0.074l68.182,39.757
		c5.309,3.096,8.562,8.788,8.536,14.933l-0.341,78.925c-0.026,6.145-3.33,11.81-8.665,14.859l-68.52,39.168
		C76.893,137.871,70.337,137.842,65.028,134.747"/>
	<g display="inline">
		<path id="BOTTOM" fill="#FFFFFF" d="M148.892,67.936c-1.029-2.047-4.086-10.067-7.049-15.091
			c-1.024-1.738-3.138-2.498-5.037-1.815l-56.97,19.739c-3.644,1.31-7.63,1.308-11.272-0.004L11.752,51.033
			c-1.899-0.685-4.015,0.075-5.041,1.814C3.75,57.872,0.694,65.889-0.335,67.936c-0.125,0.248-0.234,0.503-0.301,0.772
			c-0.583,2.36,0.495,4.84,2.668,6.006c12.182,6.536,57.87,32.608,68.814,38.388c1.071,0.566,2.259,0.804,3.432,0.736
			c1.173,0.067,2.36-0.17,3.431-0.736c10.945-5.779,56.634-31.852,68.815-38.388c2.172-1.166,3.25-3.646,2.668-6.006
			C149.126,68.439,149.016,68.184,148.892,67.936"/>
		<path id="TOP" fill="#FFFFFF" d="M147.474,0.713C133.76-6.853,118.802-15.583,109.5-20.583c-6.125-3.292-10.125-6.25-16.667-6.25
			c-15.167,0-21.501-0.057-37.167-0.057C50-26.89,44.232-23,39.5-20.666C29.939-16.182,13.996-6.853,0.283,0.713
			c-7.25,4-3.85,7.865-1.758,13.667c3.8,10.537,8.063,20.404,10.565,25.757c0.447,0.958,0.943,1.701,2.318,2.326
			c0.763,0.347,20.154,6.224,37.286,11.394c-2.756-4.564-4.344-9.917-4.344-15.643C44.351,21.508,57.859,7.966,74.521,7.966
			c16.663,0,30.17,13.543,30.17,30.249c0,5.532-1.488,10.712-4.075,15.173c16.729-5.05,34.993-10.589,35.733-10.925
			c1.375-0.625,1.871-1.368,2.318-2.326c2.502-5.353,6.765-15.22,10.564-25.757C151.323,8.579,154.724,4.713,147.474,0.713z"/>
		<path id="ANCHOR" fill="#FFFFFF" d="M93.52,45.652c-1.035-0.384-2.186,0.145-2.57,1.181c-2.346,6.338-8.113,10.777-14.726,11.554
			V37.101h7.747c1.104,0,2-0.896,2-2s-0.896-2-2-2h-7.747v-3.236c2.848-0.861,4.929-3.506,4.929-6.631
			c0-3.82-3.108-6.929-6.929-6.929c-3.82,0-6.929,3.108-6.929,6.929c0,3.125,2.081,5.771,4.929,6.631v3.236h-7.748
			c-1.104,0-2,0.896-2,2s0.896,2,2,2h7.748v21.305c-6.416-0.692-12.005-4.777-14.561-10.818c-0.43-1.017-1.603-1.494-2.621-1.062
			c-1.017,0.43-1.493,1.604-1.063,2.621c3.437,8.125,11.357,13.375,20.178,13.375c9.123,0,17.378-5.747,20.544-14.299
			C95.085,47.186,94.556,46.035,93.52,45.652z M71.296,23.233c0-1.615,1.314-2.929,2.929-2.929s2.929,1.314,2.929,2.929
			s-1.314,2.928-2.929,2.928S71.296,24.848,71.296,23.233z"/>
	</g>
</g>
<g id="_x31_">
	<g>
		<rect x="-1.146" y="5.51" display="none" fill="#D8E022" width="97.051" height="61.582"/>
		<circle display="none" fill="none" cx="38.991" cy="34.118" r="1.274"/>
		<g>
			<path fill="#FFFFFF" d="M72.499,18.321L42.826,1.019c-2.31-1.347-5.163-1.359-7.485-0.032L5.519,18.033
				C3.198,19.36,1.76,21.825,1.748,24.5L1.601,58.848C1.589,61.523,3.005,64,5.315,65.347l29.673,17.302
				c2.311,1.348,5.164,1.359,7.486,0.033l29.821-17.047c2.322-1.327,3.759-3.792,3.771-6.467l0.148-34.349
				C76.225,22.146,74.81,19.669,72.499,18.321z M70.456,56.523c-5.302,2.845-25.185,14.192-29.949,16.706
				c-0.466,0.247-0.982,0.35-1.493,0.32c-0.51,0.029-1.027-0.074-1.493-0.32c-4.763-2.515-24.647-13.862-29.949-16.706
				c-0.945-0.507-1.415-1.587-1.161-2.614c0.029-0.117,0.077-0.228,0.13-0.336c0.448-0.891,1.778-4.379,3.067-6.567
				c0.447-0.757,1.367-1.088,2.194-0.79l24.725,8.588c1.585,0.571,3.32,0.572,4.906,0.001l24.793-8.59
				c0.827-0.297,1.747,0.034,2.192,0.79c1.29,2.186,2.62,5.677,3.068,6.567c0.054,0.108,0.102,0.219,0.131,0.336
				C71.871,54.936,71.401,56.015,70.456,56.523z M34.748,40.153c-0.48,0-0.87-0.39-0.87-0.871c0-0.481,0.39-0.87,0.87-0.87h3.372
				v-1.408c-1.239-0.375-2.145-1.526-2.145-2.886c0-1.663,1.353-3.015,3.015-3.015c1.663,0,3.016,1.353,3.016,3.015
				c0,1.36-0.905,2.511-2.145,2.886v1.408h3.372c0.48,0,0.87,0.39,0.87,0.87c0,0.48-0.39,0.871-0.87,0.871h-3.372v9.264
				c2.878-0.338,5.388-2.27,6.409-5.028c0.167-0.451,0.668-0.682,1.119-0.515s0.681,0.668,0.514,1.119
				c-1.377,3.722-4.971,6.223-8.94,6.223c-3.839,0-7.286-2.285-8.782-5.821c-0.188-0.443,0.02-0.954,0.462-1.141
				c0.444-0.188,0.954,0.02,1.141,0.463c1.113,2.629,3.545,4.407,6.337,4.708v-9.272H34.748z M71.634,30.265
				c-1.653,4.586-3.508,8.88-4.597,11.209c-0.195,0.417-0.411,0.74-1.009,1.013c-0.322,0.146-8.27,2.557-15.551,4.755
				c1.125-1.942,1.773-4.196,1.773-6.604c0-7.271-5.878-13.165-13.13-13.165c-7.251,0-13.13,5.894-13.13,13.164
				c0,2.492,0.691,4.822,1.891,6.808c-7.456-2.25-15.895-4.808-16.228-4.958c-0.599-0.272-0.814-0.596-1.009-1.013
				c-1.088-2.329-2.944-6.624-4.598-11.209c-0.91-2.525-2.39-4.207,0.765-5.948c5.968-3.293,12.907-7.353,17.068-9.305
				c2.06-1.016,4.569-2.708,7.036-2.708c6.818,0,9.575,0.025,16.176,0.025c2.846,0,4.587,1.287,7.253,2.72
				c4.048,2.176,10.558,5.976,16.526,9.269C74.025,26.058,72.544,27.74,71.634,30.265z"/>
			<circle fill="#FFFFFF" cx="38.991" cy="34.118" r="1.274"/>
		</g>
	</g>
	<g>
		<path fill="#FFFFFF" d="M98.252,55.089c-0.937,0-1.349-0.412-1.349-1.349V29.456c0-0.937,0.412-1.349,1.349-1.349h5.809
			c0.937,0,1.349,0.412,1.349,1.349v8.132h6.258v-8.132c0-0.937,0.412-1.349,1.349-1.349h5.809c0.936,0,1.349,0.412,1.349,1.349
			V53.74c0,0.937-0.412,1.349-1.349,1.349h-5.809c-0.937,0-1.349-0.412-1.349-1.349v-8.32h-6.258v8.32
			c0,0.937-0.412,1.349-1.349,1.349H98.252z"/>
		<path fill="#FFFFFF" d="M131.642,55.089h-5.509c-0.937,0-1.35-0.412-1.35-1.349v-9.893c0-1.499,0.45-3.373,1.462-5.996l3.26-8.506
			c0.3-0.862,0.899-1.237,1.911-1.237h10.081c0.974,0,1.574,0.375,1.874,1.237l3.261,8.506c1.012,2.624,1.462,4.497,1.462,5.996
			v9.893c0,0.937-0.412,1.349-1.349,1.349h-5.659c-1.012,0-1.461-0.412-1.461-1.349v-5.246h-6.633v5.246
			C132.991,54.677,132.579,55.089,131.642,55.089z M133.366,41.673h5.884l-1.761-5.696c-0.188-0.45-0.413-0.637-0.712-0.637h-0.936
			c-0.3,0-0.525,0.187-0.712,0.637L133.366,41.673z"/>
		<path fill="#FFFFFF" d="M154.052,55.089c-0.937,0-1.349-0.412-1.349-1.349V29.456c0-0.937,0.412-1.349,1.349-1.349h12.479
			c5.622,0,7.383,2.548,7.383,6.258v1.724c0,2.099-0.524,3.598-2.099,4.272c2.736,0.3,4.535,2.286,4.535,5.434v7.945
			c0,0.937-0.412,1.349-1.349,1.349h-5.809c-0.937,0-1.349-0.412-1.349-1.349v-5.734c0-1.124-0.375-1.611-1.424-1.611h-5.247v7.345
			c0,0.937-0.412,1.349-1.349,1.349H154.052z M161.172,39.649h2.811c1.311,0,1.648-0.75,1.648-1.761v-1.274
			c0-1.012-0.337-1.761-1.648-1.761h-2.811V39.649z"/>
		<path fill="#FFFFFF" d="M181.895,55.089c-0.937,0-1.349-0.412-1.349-1.349V29.456c0-0.937,0.412-1.349,1.349-1.349h11.955
			c4.909,0,7.195,1.799,7.195,5.733v1.799c0,2.099-0.712,3.41-2.211,4.047c3.223,0.3,4.722,2.136,4.722,5.809v3.448
			c0,4.197-2.286,6.146-7.27,6.146H181.895z M188.978,38.524h3.186c0.975,0,1.424-0.487,1.424-1.499v-1.049
			c0-1.012-0.45-1.499-1.424-1.499h-3.186V38.524z M188.978,48.718h4.872c0.975,0,1.424-0.487,1.424-1.499v-1.461
			c0-1.012-0.449-1.461-1.424-1.461h-4.872V48.718z"/>
		<path fill="#FFFFFF" d="M218.958,55.651c-9.369,0-11.655-3.073-11.655-7.645V35.227c0-4.572,2.286-7.682,11.655-7.682
			c9.369,0,11.617,3.11,11.617,7.682v12.779C230.575,52.578,228.327,55.651,218.958,55.651z M218.958,48.418
			c2.736,0,3.148-0.749,3.148-1.761v-10.08c0-0.975-0.412-1.724-3.148-1.724c-2.698,0-3.148,0.75-3.148,1.724v10.08
			C215.81,47.669,216.26,48.418,218.958,48.418z"/>
		<path fill="#FFFFFF" d="M235.299,55.089c-0.937,0-1.349-0.412-1.349-1.349V29.456c0-0.937,0.412-1.349,1.349-1.349h12.479
			c5.621,0,7.383,2.548,7.383,6.258v1.724c0,2.099-0.524,3.598-2.099,4.272c2.735,0.3,4.534,2.286,4.534,5.434v7.945
			c0,0.937-0.412,1.349-1.349,1.349h-5.809c-0.937,0-1.35-0.412-1.35-1.349v-5.734c0-1.124-0.374-1.611-1.424-1.611h-5.246v7.345
			c0,0.937-0.413,1.349-1.35,1.349H235.299z M242.42,39.649h2.811c1.311,0,1.648-0.75,1.648-1.761v-1.274
			c0-1.012-0.337-1.761-1.648-1.761h-2.811V39.649z"/>
		<path fill="#FFFFFF" d="M263.142,55.089c-0.936,0-1.349-0.412-1.349-1.349V29.456c0-0.937,0.412-1.349,1.349-1.349h6.034
			c0.787,0,1.273,0.3,1.724,1.124l3.373,6.108c0.262,0.45,0.374,0.637,0.675,0.637h0.337c0.3,0,0.412-0.188,0.675-0.637l3.335-6.108
			c0.45-0.824,0.937-1.124,1.724-1.124h6.071c0.936,0,1.349,0.412,1.349,1.349V53.74c0,0.937-0.412,1.349-1.349,1.349h-5.772
			c-0.974,0-1.349-0.412-1.349-1.349V40.548l-2.211,4.085c-0.45,0.862-1.012,1.199-1.986,1.199h-1.499
			c-0.975,0-1.537-0.337-1.986-1.199l-2.211-4.085V53.74c0,0.937-0.412,1.349-1.35,1.349H263.142z"/>
		<path fill="#FFFFFF" d="M299.906,55.089h-5.509c-0.938,0-1.35-0.412-1.35-1.349v-9.893c0-1.499,0.45-3.373,1.462-5.996
			l3.261-8.506c0.299-0.862,0.898-1.237,1.911-1.237h10.081c0.974,0,1.573,0.375,1.873,1.237l3.261,8.506
			c1.012,2.624,1.462,4.497,1.462,5.996v9.893c0,0.937-0.413,1.349-1.35,1.349h-5.659c-1.012,0-1.461-0.412-1.461-1.349v-5.246
			h-6.634v5.246C301.254,54.677,300.842,55.089,299.906,55.089z M301.629,41.673h5.884l-1.762-5.696
			c-0.186-0.45-0.412-0.637-0.712-0.637h-0.937c-0.3,0-0.524,0.187-0.712,0.637L301.629,41.673z"/>
		<path fill="#FFFFFF" d="M321.641,55.089c-0.938,0-1.35-0.412-1.35-1.349v-4.385c0-0.937,0.412-1.349,1.35-1.349h10.08
			c0.638,0,0.975-0.487,0.975-1.087c0-0.862-0.337-1.199-0.975-1.274l-5.621-0.787c-3.522-0.524-5.809-2.023-5.809-6.221v-3.935
			c0-4.272,2.886-6.595,7.758-6.595h10.493c0.936,0,1.349,0.412,1.349,1.349v4.459c0,0.937-0.412,1.349-1.349,1.349h-8.732
			c-0.637,0-1.012,0.45-1.012,1.125c0,0.674,0.375,1.124,1.012,1.199l5.584,0.75c3.522,0.524,5.847,2.023,5.847,6.221v3.935
			c0,4.272-2.924,6.596-7.758,6.596H321.641z"/>
		<path fill="#FFFFFF" d="M351.621,55.089c-0.938,0-1.35-0.412-1.35-1.349v-18.4h-5.509c-0.937,0-1.35-0.413-1.35-1.349v-4.534
			c0-0.937,0.413-1.349,1.35-1.349h19.787c0.936,0,1.349,0.412,1.349,1.349v4.534c0,0.937-0.413,1.349-1.349,1.349h-5.509v18.4
			c0,0.937-0.412,1.349-1.35,1.349H351.621z"/>
		<path fill="#FFFFFF" d="M370.881,55.089c-0.935,0-1.348-0.412-1.348-1.349V29.456c0-0.937,0.412-1.349,1.348-1.349h17.389
			c0.938,0,1.35,0.412,1.35,1.349v4.384c0,0.937-0.412,1.349-1.35,1.349h-10.342v2.886h7.307c0.938,0,1.35,0.412,1.35,1.349v4.01
			c0,0.937-0.412,1.349-1.35,1.349h-7.307v3.223h10.342c0.938,0,1.35,0.412,1.35,1.349v4.385c0,0.937-0.412,1.349-1.35,1.349
			H370.881z"/>
		<path fill="#FFFFFF" d="M395.389,55.089c-0.935,0-1.348-0.412-1.348-1.349V29.456c0-0.937,0.412-1.349,1.348-1.349h12.48
			c5.621,0,7.383,2.548,7.383,6.258v1.724c0,2.099-0.525,3.598-2.1,4.272c2.736,0.3,4.535,2.286,4.535,5.434v7.945
			c0,0.937-0.412,1.349-1.35,1.349h-5.809c-0.938,0-1.35-0.412-1.35-1.349v-5.734c0-1.124-0.373-1.611-1.424-1.611h-5.246v7.345
			c0,0.937-0.412,1.349-1.35,1.349H395.389z M402.51,39.649h2.811c1.312,0,1.648-0.75,1.648-1.761v-1.274
			c0-1.012-0.336-1.761-1.648-1.761h-2.811V39.649z"/>
	</g>
</g>
</svg>
